<svg id="svg" version="1.1" xmlns="http://www.w3.org/2000/svg" xmlns:xlink="http://www.w3.org/1999/xlink" width="400" height="400" viewBox="0, 0, 400,400"><g id="svgg"><path id="path0" d="M0.000 200.000 L 0.000 400.000 200.000 400.000 L 400.000 400.000 400.000 200.000 L 400.000 0.000 200.000 0.000 L 0.000 0.000 0.000 200.000 M135.556 140.076 C 139.232 144.661,188.977 193.600,189.961 193.600 C 190.877 193.600,241.710 143.580,244.888 139.551 C 245.820 138.369,249.600 138.212,249.600 139.356 C 249.600 139.954,260.073 150.400,260.674 150.400 C 262.223 150.400,261.642 154.086,259.859 155.566 C 257.818 157.262,206.934 208.231,206.489 209.026 C 206.250 209.453,206.217 210.120,206.410 210.626 C 206.773 211.581,259.865 264.800,260.455 264.800 C 261.083 264.800,261.664 266.932,261.408 268.296 C 261.274 269.013,260.930 269.600,260.643 269.600 C 259.958 269.600,249.600 279.904,249.600 280.586 C 249.600 280.876,249.139 281.229,248.576 281.370 C 247.182 281.720,244.800 281.230,244.800 280.593 C 244.800 279.909,191.712 226.823,190.610 226.404 C 190.109 226.213,189.437 226.259,188.979 226.516 C 187.881 227.130,135.200 279.935,135.200 280.421 C 135.200 281.097,133.114 281.656,131.567 281.394 C 130.640 281.238,130.117 280.936,130.149 280.577 C 130.208 279.919,120.076 269.600,119.370 269.600 C 118.215 269.600,118.360 265.826,119.551 264.890 C 123.559 261.741,173.600 210.880,173.600 209.956 C 173.600 208.951,126.472 161.026,120.600 156.059 C 118.540 154.316,117.671 150.400,119.345 150.400 C 119.947 150.400,130.400 139.936,130.400 139.333 C 130.400 137.935,134.288 138.495,135.556 140.076 " stroke="none" fill="#f4f4f4" fill-rule="evenodd"></path><path id="path1" d="M126.361 146.193 C 123.192 149.379,120.539 152.271,120.465 152.620 C 120.380 153.021,130.486 163.414,147.998 180.934 C 177.114 210.065,176.658 209.581,176.048 210.695 C 175.835 211.083,163.229 223.820,148.035 239.000 C 132.840 254.180,120.407 266.870,120.405 267.200 C 120.403 267.640,128.931 276.580,132.066 279.424 C 132.711 280.009,135.688 277.171,161.503 251.360 C 176.526 236.339,189.187 223.931,189.639 223.788 C 190.641 223.470,188.697 221.604,220.800 253.696 C 234.550 267.442,246.221 278.908,246.736 279.178 C 247.730 279.697,259.600 268.690,259.600 267.249 C 259.600 266.927,247.167 254.229,231.970 239.032 C 216.774 223.834,204.160 211.075,203.939 210.678 C 203.299 209.532,203.266 209.567,232.224 180.621 C 248.655 164.197,259.607 152.956,259.529 152.595 C 259.342 151.719,247.938 140.400,247.243 140.400 C 246.920 140.400,234.201 152.845,218.978 168.056 C 203.755 183.267,190.998 195.881,190.629 196.088 C 189.576 196.677,189.811 196.900,160.754 167.844 C 145.659 152.750,133.042 140.400,132.715 140.400 C 132.389 140.400,129.530 143.007,126.361 146.193 " stroke="none" fill="#858585" fill-rule="evenodd"></path><path id="path2" d="M131.817 139.173 C 131.658 139.430,131.813 139.493,132.220 139.337 C 132.590 139.195,133.052 139.329,133.271 139.642 C 133.595 140.106,133.633 140.099,133.497 139.600 C 133.300 138.876,132.177 138.591,131.817 139.173 M244.378 141.500 L 243.000 143.000 244.500 141.622 C 245.896 140.338,246.184 140.000,245.878 140.000 C 245.812 140.000,245.137 140.675,244.378 141.500 M250.200 142.000 C 251.283 143.100,252.260 144.000,252.370 144.000 C 252.480 144.000,251.683 143.100,250.600 142.000 C 249.517 140.900,248.540 140.000,248.430 140.000 C 248.320 140.000,249.117 140.900,250.200 142.000 M129.200 142.200 C 128.228 143.190,127.523 144.000,127.633 144.000 C 127.743 144.000,128.628 143.190,129.600 142.200 C 130.572 141.210,131.277 140.400,131.167 140.400 C 131.057 140.400,130.172 141.210,129.200 142.200 M241.178 144.700 L 239.800 146.200 241.300 144.822 C 242.696 143.538,242.984 143.200,242.678 143.200 C 242.612 143.200,241.937 143.875,241.178 144.700 M125.578 145.900 L 124.200 147.400 125.700 146.022 C 126.525 145.263,127.200 144.588,127.200 144.522 C 127.200 144.216,126.862 144.504,125.578 145.900 M256.000 147.800 C 257.860 149.670,259.472 151.200,259.582 151.200 C 259.692 151.200,258.260 149.670,256.400 147.800 C 254.540 145.930,252.928 144.400,252.818 144.400 C 252.708 144.400,254.140 145.930,256.000 147.800 M234.378 151.500 L 233.000 153.000 234.500 151.622 C 235.896 150.338,236.184 150.000,235.878 150.000 C 235.812 150.000,235.137 150.675,234.378 151.500 M260.300 151.865 C 261.047 152.166,260.907 152.782,259.900 153.626 L 259.000 154.381 260.097 153.890 C 261.372 153.321,261.682 151.578,260.500 151.632 C 260.082 151.650,260.001 151.744,260.300 151.865 M222.187 163.700 L 219.800 166.200 222.300 163.813 C 223.675 162.499,224.800 161.374,224.800 161.313 C 224.800 161.017,224.405 161.378,222.187 163.700 M217.781 168.100 L 216.200 169.800 217.900 168.219 C 219.481 166.748,219.784 166.400,219.481 166.400 C 219.416 166.400,218.651 167.165,217.781 168.100 M214.378 171.500 L 213.000 173.000 214.500 171.622 C 215.896 170.338,216.184 170.000,215.878 170.000 C 215.812 170.000,215.137 170.675,214.378 171.500 M207.781 178.100 L 206.200 179.800 207.900 178.219 C 209.481 176.748,209.784 176.400,209.481 176.400 C 209.416 176.400,208.651 177.165,207.781 178.100 M201.178 184.700 L 199.800 186.200 201.300 184.822 C 202.125 184.063,202.800 183.388,202.800 183.322 C 202.800 183.016,202.462 183.304,201.178 184.700 M197.781 188.100 L 196.200 189.800 197.900 188.219 C 199.481 186.748,199.784 186.400,199.481 186.400 C 199.416 186.400,198.651 187.165,197.781 188.100 M194.378 191.500 L 193.000 193.000 194.500 191.622 C 195.325 190.863,196.000 190.188,196.000 190.122 C 196.000 189.816,195.662 190.104,194.378 191.500 M171.178 214.700 L 169.800 216.200 171.300 214.822 C 172.696 213.538,172.984 213.200,172.678 213.200 C 172.612 213.200,171.937 213.875,171.178 214.700 M167.781 218.100 L 166.200 219.800 167.900 218.219 C 169.481 216.748,169.784 216.400,169.481 216.400 C 169.416 216.400,168.651 217.165,167.781 218.100 M161.178 224.700 L 159.800 226.200 161.300 224.822 C 162.696 223.538,162.984 223.200,162.678 223.200 C 162.612 223.200,161.937 223.875,161.178 224.700 M157.781 228.100 L 156.200 229.800 157.900 228.219 C 159.481 226.748,159.784 226.400,159.481 226.400 C 159.416 226.400,158.651 227.165,157.781 228.100 M151.178 234.700 L 149.800 236.200 151.300 234.822 C 152.696 233.538,152.984 233.200,152.678 233.200 C 152.612 233.200,151.937 233.875,151.178 234.700 M142.187 243.700 L 139.800 246.200 142.300 243.813 C 144.622 241.595,144.983 241.200,144.687 241.200 C 144.626 241.200,143.501 242.325,142.187 243.700 M137.781 248.100 L 136.200 249.800 137.900 248.219 C 138.835 247.349,139.600 246.584,139.600 246.519 C 139.600 246.216,139.252 246.519,137.781 248.100 M121.178 264.700 L 119.800 266.200 121.300 264.822 C 122.696 263.538,122.984 263.200,122.678 263.200 C 122.612 263.200,121.937 263.875,121.178 264.700 M118.938 267.017 C 118.808 267.357,118.769 267.672,118.852 267.717 C 118.934 267.763,121.792 270.494,125.201 273.786 L 131.400 279.772 125.289 273.602 C 121.832 270.112,119.265 267.208,119.377 266.916 C 119.486 266.632,119.485 266.400,119.375 266.400 C 119.265 266.400,119.068 266.678,118.938 267.017 M257.635 270.700 C 254.623 273.752,254.620 273.759,257.398 271.100 C 258.949 269.615,260.440 268.400,260.709 268.400 C 260.979 268.400,261.200 268.220,261.200 268.000 C 261.200 267.224,260.664 267.630,257.635 270.700 M251.188 277.100 L 248.600 279.800 251.300 277.212 C 252.785 275.788,254.000 274.573,254.000 274.512 C 254.000 274.217,253.593 274.592,251.188 277.100 M131.434 280.543 C 131.709 281.262,133.008 281.435,133.397 280.805 C 133.538 280.577,133.376 280.511,133.016 280.649 C 132.671 280.781,132.118 280.664,131.786 280.388 C 131.283 279.971,131.224 279.997,131.434 280.543 M246.400 280.900 C 246.400 281.065,246.749 281.200,247.176 281.200 C 247.603 281.200,248.036 281.065,248.138 280.900 C 248.240 280.735,247.891 280.600,247.362 280.600 C 246.833 280.600,246.400 280.735,246.400 280.900 " stroke="none" fill="#b4b4b4" fill-rule="evenodd"></path><path id="path3" d="M125.700 145.869 C 122.125 149.476,119.201 152.556,119.201 152.714 C 119.202 152.871,131.802 165.598,147.201 180.996 C 169.298 203.090,175.200 209.202,175.200 209.989 C 175.200 210.776,169.294 216.895,147.200 238.997 C 131.800 254.403,119.201 267.096,119.202 267.204 C 119.205 267.504,132.452 280.801,132.744 280.796 C 132.885 280.794,145.580 268.194,160.957 252.796 C 183.781 229.939,189.106 224.800,189.963 224.800 C 190.821 224.800,196.161 229.948,219.007 252.799 C 234.403 268.199,247.110 280.799,247.245 280.799 C 247.380 280.800,250.532 277.745,254.250 274.011 L 261.011 267.222 232.905 239.114 C 210.041 216.247,204.800 210.811,204.800 209.960 C 204.800 209.110,210.022 203.693,232.800 180.914 C 248.200 165.513,260.800 152.830,260.800 152.730 C 260.800 152.459,247.512 139.200,247.240 139.200 C 247.112 139.200,234.403 151.800,218.997 167.200 C 191.357 194.830,190.326 195.774,188.832 194.829 C 188.520 194.631,175.822 182.034,160.615 166.835 C 145.407 151.636,132.792 139.225,132.582 139.255 C 132.372 139.286,129.275 142.262,125.700 145.869 M160.754 167.844 C 189.811 196.900,189.576 196.677,190.629 196.088 C 190.998 195.881,203.755 183.267,218.978 168.056 C 234.201 152.845,246.920 140.400,247.243 140.400 C 247.938 140.400,259.342 151.719,259.529 152.595 C 259.607 152.956,248.655 164.197,232.224 180.621 C 203.266 209.567,203.299 209.532,203.939 210.678 C 204.160 211.075,216.774 223.834,231.970 239.032 C 247.167 254.229,259.600 266.927,259.600 267.249 C 259.600 268.690,247.730 279.697,246.736 279.178 C 246.221 278.908,234.550 267.442,220.800 253.696 C 188.697 221.604,190.641 223.470,189.639 223.788 C 189.187 223.931,176.526 236.339,161.503 251.360 C 135.688 277.171,132.711 280.009,132.066 279.424 C 128.931 276.580,120.403 267.640,120.405 267.200 C 120.407 266.870,132.840 254.180,148.035 239.000 C 163.229 223.820,175.835 211.083,176.048 210.695 C 176.658 209.581,177.114 210.065,147.998 180.934 C 130.486 163.414,120.380 153.021,120.465 152.620 C 120.657 151.716,132.001 140.400,132.715 140.400 C 133.042 140.400,145.659 152.750,160.754 167.844 " stroke="none" fill="#acacac" fill-rule="evenodd"></path><path id="path4" d="M130.400 139.295 C 130.400 139.948,119.958 150.400,119.306 150.400 C 119.028 150.400,118.800 150.676,118.800 151.014 C 118.800 152.060,119.904 151.168,125.513 145.586 C 131.078 140.048,132.090 138.800,131.014 138.800 C 130.676 138.800,130.400 139.023,130.400 139.295 M133.967 139.500 C 135.039 141.400,189.112 194.800,189.964 194.800 C 191.124 194.800,246.904 139.169,246.035 138.879 C 245.724 138.775,245.224 139.030,244.923 139.445 C 242.530 142.749,190.920 193.600,189.960 193.600 C 188.921 193.600,137.230 142.649,135.336 139.758 C 134.591 138.621,133.337 138.385,133.967 139.500 M248.789 139.579 C 250.217 142.248,261.200 152.178,261.200 150.800 C 261.200 150.580,260.972 150.400,260.694 150.400 C 260.042 150.400,249.600 139.948,249.600 139.295 C 249.600 139.023,249.324 138.800,248.986 138.800 C 248.501 138.800,248.460 138.964,248.789 139.579 M118.800 154.140 C 118.800 154.452,119.219 154.982,119.730 155.318 C 122.625 157.214,173.600 208.915,173.600 209.955 C 173.600 210.964,121.656 263.641,119.435 264.884 C 118.706 265.292,118.585 266.000,119.245 266.000 C 120.176 266.000,174.800 210.880,174.800 209.941 C 174.800 209.092,121.417 155.061,119.500 153.970 C 118.975 153.671,118.800 153.714,118.800 154.140 M232.696 181.507 C 211.483 202.729,205.200 209.234,205.200 209.980 C 205.200 211.008,259.666 265.977,260.700 265.993 C 261.491 266.004,261.284 265.347,260.292 264.697 C 258.694 263.650,206.751 211.524,206.409 210.624 C 206.216 210.116,206.252 209.450,206.497 209.013 C 207.095 207.944,260.334 154.800,260.806 154.800 C 261.023 154.800,261.200 154.620,261.200 154.400 C 261.200 153.161,257.783 156.410,232.696 181.507 M161.507 252.696 C 146.378 267.819,134.000 280.419,134.000 280.696 C 134.000 281.518,134.660 281.273,135.372 280.187 C 136.230 278.878,187.965 227.083,188.985 226.512 C 189.438 226.259,190.110 226.214,190.610 226.404 C 191.759 226.840,244.800 279.924,244.800 280.637 C 244.800 280.947,245.070 281.200,245.400 281.200 C 245.730 281.200,245.997 280.975,245.994 280.700 C 245.983 279.671,191.005 225.200,189.977 225.200 C 189.235 225.200,182.689 231.522,161.507 252.696 M118.800 268.986 C 118.800 269.324,119.034 269.600,119.320 269.600 C 120.079 269.600,130.210 279.899,130.144 280.604 C 130.114 280.932,130.339 281.200,130.644 281.200 C 131.962 281.200,130.876 279.733,125.782 274.633 C 120.124 268.968,118.800 267.898,118.800 268.986 M254.853 273.947 C 252.012 276.778,249.377 279.568,248.998 280.147 C 248.551 280.829,247.948 281.200,247.287 281.200 C 246.726 281.200,246.378 281.312,246.515 281.448 C 246.964 281.897,249.600 281.182,249.600 280.611 C 249.600 279.901,259.948 269.600,260.661 269.600 C 260.958 269.600,261.200 269.420,261.200 269.200 C 261.200 268.040,259.519 269.298,254.853 273.947 " stroke="none" fill="#c6c6c6" fill-rule="evenodd"></path><path id="path5" d="M130.799 140.100 C 130.210 140.904,130.113 141.184,130.545 140.833 C 131.201 140.300,132.193 138.800,131.889 138.800 C 131.813 138.800,131.322 139.385,130.799 140.100 M248.364 139.533 C 248.580 139.936,249.071 140.521,249.455 140.833 C 249.887 141.184,249.790 140.904,249.201 140.100 C 248.151 138.665,247.757 138.398,248.364 139.533 M126.175 144.900 L 125.000 146.200 126.300 145.025 C 127.015 144.379,127.600 143.794,127.600 143.725 C 127.600 143.416,127.270 143.688,126.175 144.900 M120.600 150.278 C 119.500 151.294,118.960 151.932,119.400 151.695 C 120.162 151.286,123.153 148.383,122.778 148.416 C 122.680 148.425,121.700 149.263,120.600 150.278 M259.362 150.700 C 259.781 151.195,260.411 151.586,260.762 151.568 C 261.304 151.542,261.309 151.503,260.800 151.316 C 260.470 151.195,259.840 150.804,259.400 150.448 C 258.607 149.806,258.606 149.808,259.362 150.700 M118.800 153.311 C 118.800 153.387,119.385 153.878,120.100 154.401 C 120.904 154.990,121.184 155.087,120.833 154.655 C 120.300 153.999,118.800 153.007,118.800 153.311 M259.170 154.700 L 258.200 155.800 259.200 154.951 C 259.750 154.484,260.470 154.003,260.800 153.882 C 261.314 153.695,261.309 153.659,260.770 153.632 C 260.423 153.614,259.703 154.095,259.170 154.700 M254.175 159.700 L 253.000 161.000 254.300 159.825 C 255.015 159.179,255.600 158.594,255.600 158.525 C 255.600 158.216,255.270 158.488,254.175 159.700 M239.375 174.500 L 238.200 175.800 239.500 174.625 C 240.215 173.979,240.800 173.394,240.800 173.325 C 240.800 173.016,240.470 173.288,239.375 174.500 M234.175 179.700 L 233.000 181.000 234.300 179.825 C 235.015 179.179,235.600 178.594,235.600 178.525 C 235.600 178.216,235.270 178.488,234.175 179.700 M229.375 184.500 L 228.200 185.800 229.500 184.625 C 230.215 183.979,230.800 183.394,230.800 183.325 C 230.800 183.016,230.470 183.288,229.375 184.500 M224.175 189.700 L 223.000 191.000 224.300 189.825 C 225.015 189.179,225.600 188.594,225.600 188.525 C 225.600 188.216,225.270 188.488,224.175 189.700 M219.375 194.500 L 218.200 195.800 219.500 194.625 C 220.215 193.979,220.800 193.394,220.800 193.325 C 220.800 193.016,220.470 193.288,219.375 194.500 M209.375 204.500 L 208.200 205.800 209.500 204.625 C 210.215 203.979,210.800 203.394,210.800 203.325 C 210.800 203.016,210.470 203.288,209.375 204.500 M184.175 229.700 L 183.000 231.000 184.300 229.825 C 185.512 228.730,185.784 228.400,185.475 228.400 C 185.406 228.400,184.821 228.985,184.175 229.700 M174.175 239.700 L 173.000 241.000 174.300 239.825 C 175.512 238.730,175.784 238.400,175.475 238.400 C 175.406 238.400,174.821 238.985,174.175 239.700 M118.800 268.111 C 118.800 268.187,119.385 268.678,120.100 269.201 C 120.904 269.790,121.184 269.887,120.833 269.455 C 120.300 268.799,118.800 267.807,118.800 268.111 M259.362 269.300 C 258.606 270.192,258.607 270.194,259.400 269.552 C 259.840 269.196,260.470 268.805,260.800 268.684 C 261.309 268.497,261.304 268.458,260.762 268.432 C 260.411 268.414,259.781 268.805,259.362 269.300 M139.375 274.500 L 138.200 275.800 139.500 274.625 C 140.712 273.530,140.984 273.200,140.675 273.200 C 140.606 273.200,140.021 273.785,139.375 274.500 M134.323 279.500 C 133.380 280.598,133.116 281.200,133.576 281.200 C 133.809 281.200,134.000 280.989,134.000 280.731 C 134.000 280.474,134.298 279.934,134.662 279.531 C 135.026 279.129,135.234 278.800,135.124 278.800 C 135.014 278.800,134.653 279.115,134.323 279.500 M245.248 279.400 C 245.604 279.840,245.995 280.470,246.116 280.800 C 246.303 281.309,246.342 281.304,246.368 280.762 C 246.386 280.411,245.995 279.781,245.500 279.362 C 244.608 278.606,244.606 278.607,245.248 279.400 M249.123 279.500 C 248.418 280.321,247.890 281.200,248.101 281.200 C 248.183 281.200,248.649 280.660,249.137 280.000 C 250.101 278.696,250.092 278.372,249.123 279.500 " stroke="none" fill="#bcbcbc" fill-rule="evenodd"></path></g></svg>